<?xml version="1.0" encoding="UTF-8"?>
<!DOCTYPE svg PUBLIC "-//W3C//DTD SVG 1.1//EN" "http://www.w3.org/Graphics/SVG/1.1/DTD/svg11.dtd">
<!-- Creator: CorelDRAW 2021 (64 Bit) -->
<svg xmlns="http://www.w3.org/2000/svg" xml:space="preserve" width="168mm" height="168mm" version="1.1" style="shape-rendering:geometricPrecision; text-rendering:geometricPrecision; image-rendering:optimizeQuality; fill-rule:evenodd; clip-rule:evenodd"
viewBox="0 0 16800 16800"
 xmlns:xlink="http://www.w3.org/1999/xlink"
 xmlns:xodm="http://www.corel.com/coreldraw/odm/2003">
 <defs>
  <style type="text/css">
   <![CDATA[
    .fil0 {fill:black;fill-rule:nonzero}
   ]]>
  </style>
 </defs>
 <g id="Camada_x0020_1">
  <metadata id="CorelCorpID_0Corel-Layer"/>
  <path class="fil0" d="M15217.87 8400.53c0,3770.16 -3054.84,6825 -6825,6825 -3770.16,0 -6825,-3054.84 -6825,-6825 0,-3770.16 3054.84,-6825 6825,-6825 3770.16,0 6825,3054.84 6825,6825zm-15225 0c0,4639.69 3760.31,8400 8400,8400 4639.69,0 8400,-3760.31 8400,-8400 0,-4639.69 -3760.31,-8400 -8400,-8400 -4639.69,0 -8400,3760.31 -8400,8400z"/>
  <path class="fil0" d="M7687.31 3838.97c0,-389.67 315.89,-705.56 705.56,-705.56 389.67,0 705.56,315.89 705.56,705.56l0 4202.53 2895.41 2095.86c315.08,228.32 385.42,668.84 157.1,983.92 -228.32,315.08 -668.84,385.42 -983.92,157.1l-3155.65 -2284.24c-194.95,-125.55 -324.06,-344.5 -324.06,-593.61l0 -4561.56z"/>
 </g>
</svg>
