<?xml version="1.0" encoding="UTF-8"?>
<!DOCTYPE svg PUBLIC "-//W3C//DTD SVG 1.1//EN" "http://www.w3.org/Graphics/SVG/1.1/DTD/svg11.dtd">
<!-- Creator: CorelDRAW 2021 (64 Bit) -->
<svg xmlns="http://www.w3.org/2000/svg" xml:space="preserve" width="168mm" height="168mm" version="1.1" style="shape-rendering:geometricPrecision; text-rendering:geometricPrecision; image-rendering:optimizeQuality; fill-rule:evenodd; clip-rule:evenodd"
viewBox="0 0 16800 16800"
 xmlns:xlink="http://www.w3.org/1999/xlink"
 xmlns:xodm="http://www.corel.com/coreldraw/odm/2003">
 <defs>
  <style type="text/css">
   <![CDATA[
    .fil0 {fill:black;fill-rule:nonzero}
   ]]>
  </style>
 </defs>
 <g id="Camada_x0020_1">
  <metadata id="CorelCorpID_0Corel-Layer"/>
  <path class="fil0" d="M11122.02 4683.04c275.5,-273.98 720.96,-272.74 994.94,2.76 273.98,275.5 272.74,720.96 -2.76,994.94l-2638.93 2633.53 2518.57 1823.09c315.08,228.32 385.42,668.84 157.1,983.92 -228.32,315.08 -668.84,385.42 -983.92,157.1l-3187.56 -2307.34 0.56 -0.78c-30.11,-21.88 -58.91,-46.4 -86,-73.64 -273.98,-275.5 -272.74,-720.96 2.76,-994.94l3225.24 -3218.64z"/>
  <path class="fil0" d="M15217.87 8400.53c0,3770.16 -3054.84,6825 -6825,6825 -3770.16,0 -6825,-3054.84 -6825,-6825 0,-3770.16 3054.84,-6825 6825,-6825 3770.16,0 6825,3054.84 6825,6825zm-15225 0c0,4639.69 3760.31,8400 8400,8400 4639.69,0 8400,-3760.31 8400,-8400 0,-4639.69 -3760.31,-8400 -8400,-8400 -4639.69,0 -8400,3760.31 -8400,8400z"/>
 </g>
</svg>
