<?xml version="1.0" encoding="UTF-8"?>
<!DOCTYPE svg PUBLIC "-//W3C//DTD SVG 1.1//EN" "http://www.w3.org/Graphics/SVG/1.1/DTD/svg11.dtd">
<!-- Creator: CorelDRAW 2021 (64 Bit) -->
<svg xmlns="http://www.w3.org/2000/svg" xml:space="preserve" width="168mm" height="168mm" version="1.1" style="shape-rendering:geometricPrecision; text-rendering:geometricPrecision; image-rendering:optimizeQuality; fill-rule:evenodd; clip-rule:evenodd"
viewBox="0 0 16800 16800"
 xmlns:xlink="http://www.w3.org/1999/xlink"
 xmlns:xodm="http://www.corel.com/coreldraw/odm/2003">
 <defs>
  <style type="text/css">
   <![CDATA[
    .fil0 {fill:black;fill-rule:nonzero}
   ]]>
  </style>
 </defs>
 <g id="Camada_x0020_1">
  <metadata id="CorelCorpID_0Corel-Layer"/>
  <path class="fil0" d="M12129.33 11149.58c261.5,276.33 256.16,712.39 -15.13,982.18 -275.5,273.98 -720.96,272.74 -994.94,-2.76l-3225.24 -3232.38c-273.98,-275.5 -272.74,-720.96 2.76,-994.94 248.26,-246.89 634.5,-270.25 908.94,-70.88l0.56 -0.78 3187.56 2307.34c315.08,228.32 385.42,668.84 157.1,983.92 -7,9.67 -14.21,19.1 -21.61,28.3z"/>
  <path class="fil0" d="M15217.87 8400.53c0,3770.16 -3054.84,6825 -6825,6825 -3770.16,0 -6825,-3054.84 -6825,-6825 0,-3770.16 3054.84,-6825 6825,-6825 3770.16,0 6825,3054.84 6825,6825zm-15225 0c0,4639.69 3760.31,8400 8400,8400 4639.69,0 8400,-3760.31 8400,-8400 0,-4639.69 -3760.31,-8400 -8400,-8400 -4639.69,0 -8400,3760.31 -8400,8400z"/>
 </g>
</svg>
