<?xml version="1.0" encoding="UTF-8"?>
<!DOCTYPE svg PUBLIC "-//W3C//DTD SVG 1.1//EN" "http://www.w3.org/Graphics/SVG/1.1/DTD/svg11.dtd">
<!-- Creator: CorelDRAW 2021 (64 Bit) -->
<svg xmlns="http://www.w3.org/2000/svg" xml:space="preserve" width="168mm" height="168mm" version="1.1" style="shape-rendering:geometricPrecision; text-rendering:geometricPrecision; image-rendering:optimizeQuality; fill-rule:evenodd; clip-rule:evenodd"
viewBox="0 0 16800 16800"
 xmlns:xlink="http://www.w3.org/1999/xlink"
 xmlns:xodm="http://www.corel.com/coreldraw/odm/2003">
 <defs>
  <style type="text/css">
   <![CDATA[
    .fil0 {fill:black;fill-rule:nonzero}
   ]]>
  </style>
 </defs>
 <g id="Camada_x0020_1">
  <metadata id="CorelCorpID_0Corel-Layer"/>
  <path class="fil0" d="M3831.04 9110.2c-388.14,0 -702.8,-314.66 -702.8,-702.8 0,-388.14 314.66,-702.8 702.8,-702.8l4561.83 -6.87c154.08,0 296.55,49.62 412.38,133.71l1.03 -1.42 3187.56 2307.34c315.08,228.32 385.42,668.84 157.1,983.92 -228.32,315.08 -668.84,385.42 -983.92,157.1l-3004.32 -2174.7 -4331.66 6.52z"/>
  <path class="fil0" d="M15217.87 8400.53c0,3770.16 -3054.84,6825 -6825,6825 -3770.16,0 -6825,-3054.84 -6825,-6825 0,-3770.16 3054.84,-6825 6825,-6825 3770.16,0 6825,3054.84 6825,6825zm-15225 0c0,4639.69 3760.31,8400 8400,8400 4639.69,0 8400,-3760.31 8400,-8400 0,-4639.69 -3760.31,-8400 -8400,-8400 -4639.69,0 -8400,3760.31 -8400,8400z"/>
 </g>
</svg>
